<svg width="14" height="18" viewBox="0 0 14 18" fill="none" xmlns="http://www.w3.org/2000/svg">
<path fill-rule="evenodd" clip-rule="evenodd" d="M4.77915 2.93938V3.37784C2.53764 4.29702 0.971612 7.31612 1.02844 9.93262L1.02842 11.3859C-0.11905 12.8611 -0.0515346 15.0606 2.81126 15.0606H4.77915C4.77915 15.6634 5.01405 16.2414 5.43216 16.6677C5.85028 17.0939 6.41737 17.3333 7.00868 17.3333C7.59999 17.3333 8.16708 17.0939 8.5852 16.6677C9.00332 16.2414 9.23822 15.6634 9.23822 15.0606H11.2115C14.0688 15.0606 14.1103 12.8565 12.9629 11.3813L12.9949 9.93469C13.0526 7.31508 11.4836 4.29327 9.23822 3.37539V2.93938C9.23822 2.33662 9.00332 1.75854 8.5852 1.33232C8.16708 0.906104 7.59999 0.666656 7.00868 0.666656C6.41737 0.666656 5.85028 0.906104 5.43216 1.33232C5.01405 1.75854 4.77915 2.33662 4.77915 2.93938ZM7.75186 2.93938C7.75186 2.95477 7.7514 2.9701 7.75049 2.98537C7.50845 2.95502 7.26188 2.93938 7.01167 2.93938C6.75941 2.93938 6.51086 2.95527 6.26692 2.98612C6.26598 2.9706 6.2655 2.95502 6.2655 2.93938C6.2655 2.73846 6.3438 2.54577 6.48318 2.4037C6.62255 2.26162 6.81158 2.18181 7.00868 2.18181C7.20579 2.18181 7.39482 2.26162 7.53419 2.4037C7.67356 2.54577 7.75186 2.73846 7.75186 2.93938ZM6.2655 15.0606C6.2655 15.2615 6.3438 15.4542 6.48318 15.5963C6.62255 15.7384 6.81158 15.8182 7.00868 15.8182C7.20579 15.8182 7.39482 15.7384 7.53419 15.5963C7.67356 15.4542 7.75186 15.2615 7.75186 15.0606H6.2655ZM11.2115 13.5454C11.8464 13.5454 12.189 12.7863 11.7758 12.2948V12.2948C11.575 12.0561 11.468 11.7523 11.4749 11.4405L11.5089 9.90064C11.5656 7.32846 9.5356 4.45454 7.01167 4.45454C4.48833 4.45454 2.45858 7.3275 2.51443 9.89909L2.54791 11.4407C2.55469 11.7525 2.44772 12.0561 2.247 12.2948V12.2948C1.83379 12.7863 2.17633 13.5454 2.81126 13.5454H11.2115Z" fill="#29364E"/>
</svg>
